<?xml version="1.0" encoding="UTF-8" standalone="no"?>
<!DOCTYPE svg PUBLIC "-//W3C//DTD SVG 1.1//EN" "http://www.w3.org/Graphics/SVG/1.1/DTD/svg11.dtd">
<svg width="100%" height="100%" viewBox="0 0 1229 1229" version="1.1" xmlns="http://www.w3.org/2000/svg" xmlns:xlink="http://www.w3.org/1999/xlink" xml:space="preserve" xmlns:serif="http://www.serif.com/" style="fill-rule:evenodd;clip-rule:evenodd;stroke-linecap:square;stroke-linejoin:round;stroke-miterlimit:1.5;">
    <g transform="matrix(1,0,0,1,-2258,-2270)">
        <g id="Artboard2" transform="matrix(1,0,0,1,-0.0775812,-0.911148)">
            <rect x="2258.08" y="2270.91" width="1228.84" height="1228.84" style="fill:none;"/>
            <g transform="matrix(1.01961,0,0,1.01961,1920.88,1933.72)">
                <path d="M923.557,334.655C926.078,332.128 929.501,330.709 933.071,330.709C936.64,330.709 940.063,332.128 942.585,334.655L979.762,371.9C981.963,374.105 984.86,375.477 987.959,375.782C991.058,376.087 994.168,375.307 996.755,373.574L1040.49,344.297C1043.45,342.311 1047.09,341.586 1050.59,342.283C1054.09,342.979 1057.17,345.039 1059.15,348.009L1088.34,391.792C1090.07,394.383 1092.65,396.294 1095.63,397.198C1098.61,398.102 1101.81,397.943 1104.68,396.749L1153.29,376.565C1156.58,375.196 1160.29,375.195 1163.59,376.561C1166.88,377.927 1169.5,380.548 1170.87,383.847L1190.96,432.485C1192.15,435.363 1194.3,437.74 1197.05,439.208C1199.79,440.676 1202.96,441.145 1206.02,440.534L1257.62,430.22C1261.12,429.521 1264.76,430.242 1267.73,432.225C1270.69,434.208 1272.75,437.29 1273.44,440.792L1283.66,492.415C1284.27,495.47 1285.91,498.22 1288.32,500.196C1290.73,502.172 1293.75,503.25 1296.86,503.248L1349.49,503.199C1353.06,503.196 1356.48,504.612 1359.01,507.136C1361.53,509.661 1362.95,513.085 1362.94,516.654L1362.89,569.279C1362.89,572.394 1363.97,575.412 1365.95,577.82C1367.92,580.227 1370.67,581.874 1373.73,582.479L1425.35,592.698C1428.85,593.391 1431.93,595.448 1433.92,598.416C1435.9,601.384 1436.62,605.019 1435.92,608.519L1425.61,660.124C1425,663.178 1425.47,666.349 1426.93,669.096C1428.4,671.842 1430.78,673.994 1433.66,675.183L1482.29,695.277C1485.59,696.64 1488.21,699.259 1489.58,702.557C1490.95,705.855 1490.94,709.56 1489.58,712.857L1469.39,761.458C1468.2,764.334 1468.04,767.535 1468.94,770.516C1469.85,773.496 1471.76,776.07 1474.35,777.798L1518.13,806.994C1521.1,808.975 1523.16,812.055 1523.86,815.556C1524.56,819.057 1523.83,822.691 1521.85,825.657L1492.57,869.386C1490.84,871.974 1490.06,875.083 1490.36,878.183C1490.66,881.282 1492.04,884.179 1494.24,886.379L1531.49,923.557C1534.01,926.078 1535.43,929.501 1535.43,933.071C1535.43,936.64 1534.01,940.063 1531.49,942.585L1494.24,979.762C1492.04,981.963 1490.66,984.86 1490.36,987.959C1490.06,991.058 1490.84,994.168 1492.57,996.755L1521.85,1040.49C1523.83,1043.45 1524.56,1047.09 1523.86,1050.59C1523.16,1054.09 1521.1,1057.17 1518.13,1059.15L1474.35,1088.34C1471.76,1090.07 1469.85,1092.65 1468.94,1095.63C1468.04,1098.61 1468.2,1101.81 1469.39,1104.68L1489.58,1153.29C1490.94,1156.58 1490.95,1160.29 1489.58,1163.59C1488.21,1166.88 1485.59,1169.5 1482.29,1170.87L1433.66,1190.96C1430.78,1192.15 1428.4,1194.3 1426.93,1197.05C1425.47,1199.79 1425,1202.96 1425.61,1206.02L1435.92,1257.62C1436.62,1261.12 1435.9,1264.76 1433.92,1267.73C1431.93,1270.69 1428.85,1272.75 1425.35,1273.44L1373.73,1283.66C1370.67,1284.27 1367.92,1285.91 1365.95,1288.32C1363.97,1290.73 1362.89,1293.75 1362.89,1296.86L1362.94,1349.49C1362.95,1353.06 1361.53,1356.48 1359.01,1359.01C1356.48,1361.53 1353.06,1362.95 1349.49,1362.94L1296.86,1362.89C1293.75,1362.89 1290.73,1363.97 1288.32,1365.95C1285.91,1367.92 1284.27,1370.67 1283.66,1373.73L1273.44,1425.35C1272.75,1428.85 1270.69,1431.93 1267.73,1433.92C1264.76,1435.9 1261.12,1436.62 1257.62,1435.92L1206.02,1425.61C1202.96,1425 1199.79,1425.47 1197.05,1426.93C1194.3,1428.4 1192.15,1430.78 1190.96,1433.66L1170.87,1482.29C1169.5,1485.59 1166.88,1488.21 1163.59,1489.58C1160.29,1490.95 1156.58,1490.94 1153.29,1489.58L1104.68,1469.39C1101.81,1468.2 1098.61,1468.04 1095.63,1468.94C1092.65,1469.85 1090.07,1471.76 1088.34,1474.35L1059.15,1518.13C1057.17,1521.1 1054.09,1523.16 1050.59,1523.86C1047.09,1524.56 1043.45,1523.83 1040.49,1521.85L996.755,1492.57C994.168,1490.84 991.058,1490.06 987.959,1490.36C984.86,1490.66 981.963,1492.04 979.762,1494.24L942.585,1531.49C940.063,1534.01 936.64,1535.43 933.071,1535.43C929.501,1535.43 926.078,1534.01 923.557,1531.49L886.379,1494.24C884.179,1492.04 881.282,1490.66 878.183,1490.36C875.083,1490.06 871.974,1490.84 869.386,1492.57L825.657,1521.85C822.691,1523.83 819.057,1524.56 815.556,1523.86C812.055,1523.16 808.975,1521.1 806.994,1518.13L777.798,1474.35C776.07,1471.76 773.496,1469.85 770.516,1468.94C767.535,1468.04 764.334,1468.2 761.458,1469.39L712.857,1489.58C709.56,1490.94 705.855,1490.95 702.557,1489.58C699.259,1488.21 696.64,1485.59 695.277,1482.29L675.183,1433.66C673.994,1430.78 671.842,1428.4 669.096,1426.93C666.349,1425.47 663.178,1425 660.124,1425.61L608.519,1435.92C605.019,1436.62 601.384,1435.9 598.416,1433.92C595.448,1431.93 593.391,1428.85 592.698,1425.35L582.479,1373.73C581.874,1370.67 580.227,1367.92 577.82,1365.95C575.412,1363.97 572.394,1362.89 569.279,1362.89L516.654,1362.94C513.085,1362.95 509.661,1361.53 507.136,1359.01C504.612,1356.48 503.196,1353.06 503.199,1349.49L503.248,1296.86C503.25,1293.75 502.172,1290.73 500.196,1288.32C498.22,1285.91 495.47,1284.27 492.415,1283.66L440.792,1273.44C437.29,1272.75 434.208,1270.69 432.225,1267.73C430.242,1264.76 429.521,1261.12 430.22,1257.62L440.534,1206.02C441.145,1202.96 440.676,1199.79 439.208,1197.05C437.74,1194.3 435.363,1192.15 432.485,1190.96L383.847,1170.87C380.548,1169.5 377.927,1166.88 376.561,1163.59C375.195,1160.29 375.196,1156.58 376.565,1153.29L396.749,1104.68C397.943,1101.81 398.102,1098.61 397.198,1095.63C396.294,1092.65 394.383,1090.07 391.792,1088.34L348.009,1059.15C345.039,1057.17 342.979,1054.09 342.283,1050.59C341.586,1047.09 342.311,1043.45 344.297,1040.49L373.574,996.755C375.307,994.168 376.087,991.058 375.782,987.959C375.477,984.86 374.105,981.963 371.9,979.762L334.655,942.585C332.128,940.063 330.709,936.64 330.709,933.071C330.709,929.501 332.128,926.078 334.655,923.557L371.9,886.379C374.105,884.179 375.477,881.282 375.782,878.183C376.087,875.083 375.307,871.974 373.574,869.386L344.297,825.657C342.311,822.691 341.586,819.057 342.283,815.556C342.979,812.055 345.039,808.975 348.009,806.994L391.792,777.798C394.383,776.07 396.294,773.496 397.198,770.516C398.102,767.535 397.943,764.334 396.749,761.458L376.565,712.857C375.196,709.56 375.195,705.855 376.561,702.557C377.927,699.259 380.548,696.64 383.847,695.277L432.485,675.183C435.363,673.994 437.74,671.842 439.208,669.096C440.676,666.349 441.145,663.178 440.534,660.124L430.22,608.519C429.521,605.019 430.242,601.384 432.225,598.416C434.208,595.448 437.29,593.391 440.792,592.698L492.415,582.479C495.47,581.874 498.22,580.227 500.196,577.82C502.172,575.412 503.25,572.394 503.248,569.279L503.199,516.654C503.196,513.085 504.612,509.661 507.136,507.136C509.661,504.612 513.085,503.196 516.654,503.199L569.279,503.248C572.394,503.25 575.412,502.172 577.82,500.196C580.227,498.22 581.874,495.47 582.479,492.415L592.698,440.792C593.391,437.29 595.448,434.208 598.416,432.225C601.384,430.242 605.019,429.521 608.519,430.22L660.124,440.534C663.178,441.145 666.349,440.676 669.096,439.208C671.842,437.74 673.994,435.363 675.183,432.485L695.277,383.847C696.64,380.548 699.259,377.927 702.557,376.561C705.855,375.195 709.56,375.196 712.857,376.565L761.458,396.749C764.334,397.943 767.535,398.102 770.516,397.198C773.496,396.294 776.07,394.383 777.798,391.792L806.994,348.009C808.975,345.039 812.055,342.979 815.556,342.283C819.057,341.586 822.691,342.311 825.657,344.297L869.386,373.574C871.974,375.307 875.083,376.087 878.183,375.782C881.282,375.477 884.179,374.105 886.379,371.9L923.557,334.655Z" style="fill:rgb(255,235,214);"/>
            </g>
            <g transform="matrix(1,0,0,1,1879.08,460.292)">
                <g transform="matrix(1,0,0,1,626.598,67.6824)">
                    <g transform="matrix(1,0,0,1,-2087.9,291.778)">
                        <path d="M2292.28,1863.51L2191,1863.51L2191,1890.37L2213.14,1917.8L2228.14,1917.8L2228.14,2032.94L2250.28,2060.23L2277.28,2060.23L2277.28,1917.8L2314.43,1917.8L2314.43,1890.8L2292.28,1863.51ZM2194,1887.51L2194,1866.37L2289.28,1866.37L2289.28,1887.51L2252.14,1887.51L2252.14,2030.09L2231,2030.09L2231,1887.51L2194,1887.51Z" style="fill:rgb(245,68,51);fill-rule:nonzero;"/>
                        <path d="M2376.28,2006.8L2379.14,2006.8C2409.86,2006.8 2423.71,1977.37 2423.71,1948.09C2423.71,1932.23 2419.57,1916.51 2412.14,1905.94C2406.86,1899.8 2388,1875.09 2382.14,1870.23C2373.43,1863.09 2362.86,1861.37 2356.28,1861.37C2327.28,1861.37 2312.14,1888.66 2312.14,1918.23C2312.14,1937.23 2315.86,1952.51 2325,1963.94C2338.28,1978.66 2353.14,2006.8 2376.28,2006.8ZM2314.57,1920.09C2314.57,1904.8 2318.43,1889.51 2325.71,1879.37C2333.14,1869.09 2344,1863.94 2356.28,1863.94C2385.71,1863.94 2398.43,1891.94 2398.43,1919.66C2398.43,1935.23 2394.43,1950.51 2387.14,1960.66C2379.57,1970.94 2368.86,1976.09 2355.71,1976.09C2327.28,1976.09 2314.57,1947.94 2314.57,1920.09ZM2319.28,2032.09L2342.14,2060.23L2423.71,2060.23L2423.71,2029.51L2321.86,2029.51L2321.86,2009.51L2423.71,2009.51L2423.71,2007.09L2319.28,2007.09L2319.28,2032.09ZM2336.28,1919.94C2336.86,1936.23 2339.14,1955.37 2356.43,1956.37C2370,1957.09 2376.71,1938.51 2376.71,1919.94C2376.71,1901.37 2370,1883.51 2356.43,1883.51C2339.43,1883.51 2336.71,1903.66 2336.28,1919.94ZM2361.86,1952.8C2361.71,1938.37 2362.14,1922.09 2373.71,1915.23C2374,1929.23 2373.43,1946.51 2361.86,1952.8Z" style="fill:rgb(245,68,51);fill-rule:nonzero;"/>
                        <path d="M2443.57,2005.23L2470.28,2005.23L2476.71,1985.37L2500.43,1985.37L2516.43,2005.23L2543,2005.23L2502.71,1891.51L2480,1863.37L2460.86,1863.37L2420.71,1977.09L2443.57,2005.23ZM2423.57,2060.23L2540.14,2060.23L2540.14,2029.51L2423.57,2029.51L2423.57,2060.23ZM2423.57,2009.51L2540.14,2009.51L2540.14,2007.09L2423.57,2007.09L2423.57,2009.51ZM2424.28,1974.51L2462.71,1865.94L2478.28,1865.94L2516.71,1974.51L2495.43,1974.51L2489.14,1954.8L2452,1954.8L2445.57,1974.51L2424.28,1974.51ZM2457.71,1938.23L2483.43,1938.23L2470.43,1898.8L2457.71,1938.23Z" style="fill:rgb(245,68,51);fill-rule:nonzero;"/>
                        <path d="M2587.57,2006.8C2597.43,2006.8 2607.28,2003.66 2614.28,1996.66C2621.28,1990.37 2625,1980.8 2625,1971.37C2625,1963.94 2622.86,1956.94 2618.14,1951.37C2617.14,1950.09 2593.43,1920.66 2593.14,1920.8C2590.43,1918.09 2587.43,1915.94 2584.28,1913.8C2585.57,1913.51 2586.86,1913.37 2588,1913.37C2592.71,1913.37 2597.71,1915.37 2601.14,1918.51L2606.14,1924.66L2622.43,1907.37C2620.28,1904.8 2598.43,1877.51 2596.28,1875.23C2587.71,1866.66 2575.86,1861.37 2563.86,1861.37C2541.14,1861.37 2527.86,1878.8 2527.86,1896.66C2527.86,1902.37 2529.14,1908.09 2532.14,1912.94C2532.71,1914.51 2555.86,1942.23 2557.28,1944.37C2560.28,1947.94 2563.57,1950.66 2568.14,1953.23C2566.71,1953.66 2565.43,1953.8 2564,1953.8C2556.57,1953.8 2549.28,1949.51 2544.43,1943.09L2527.71,1960.37C2527.57,1960.66 2551.57,1990.09 2552.57,1991.37C2559.71,2000.51 2574.14,2006.8 2587.57,2006.8ZM2526.86,2060.23L2624,2060.23L2624,2029.51L2526.86,2029.51L2526.86,2060.23ZM2526.86,2009.51L2624,2009.51L2624,2007.09L2526.86,2007.09L2526.86,2009.51ZM2530.43,1896.51C2530.43,1887.66 2533.71,1879.23 2540,1873.37C2546.14,1867.23 2554.28,1863.94 2563.28,1863.94C2577.71,1863.94 2590.14,1871.37 2596.43,1879.09L2583.71,1892.66C2579,1886.23 2572.28,1882.94 2564.86,1882.94C2557.57,1882.94 2552.14,1888.23 2552.14,1895.09C2552.14,1902.23 2559.57,1905.37 2569.14,1909.23C2584.86,1914.51 2599.71,1925.8 2599.71,1943.37C2599.71,1962.09 2584.14,1976.23 2565.43,1976.23C2550,1976.23 2536.71,1968.51 2531,1960.51L2544.28,1946.8C2549.28,1952.37 2556.86,1956.23 2564.14,1956.23C2572.28,1956.23 2577.86,1952.23 2577.86,1944.37C2577.86,1936.66 2569.57,1933.09 2556.14,1927.51C2541.28,1922.09 2530.43,1912.94 2530.43,1896.51Z" style="fill:rgb(245,68,51);fill-rule:nonzero;"/>
                        <path d="M2689.43,1863.51L2613.71,1863.51L2613.71,1889.66L2636.57,1917.66L2638.57,1917.66L2638.57,1977.09L2661.28,2005.23L2687.28,2005.23L2687.28,1917.66L2712.14,1917.66L2712.14,1891.51L2689.43,1863.51ZM2613.86,2060.23L2712.86,2060.23L2712.86,2035.23L2689.71,2007.09L2613.86,2007.09L2613.86,2009.51L2686.86,2009.51L2686.86,2029.51L2613.86,2029.51L2613.86,2060.23ZM2616.28,1887.09L2616.28,1866.09L2686.86,1866.09L2686.86,1887.09L2662,1887.09L2662,1974.51L2641.14,1974.51L2641.14,1887.09L2616.28,1887.09Z" style="fill:rgb(245,68,51);fill-rule:nonzero;"/>
                        <path d="M2248.07,2262.23C2266.93,2262.23 2282.5,2253.66 2293.07,2237.23C2302.93,2221.94 2308.21,2200.23 2308.21,2174.66C2308.21,2149.23 2303.07,2127.66 2293.21,2112.37C2291.93,2110.37 2290.5,2108.51 2289.07,2106.8L2266.93,2079.51C2257.64,2067.94 2244.36,2059.94 2226.07,2059.94C2206.93,2059.94 2191.36,2069.09 2180.93,2085.09C2171.07,2100.37 2165.93,2121.94 2165.93,2147.37C2165.93,2172.66 2171.07,2194.23 2180.78,2209.51C2181.93,2211.09 2183.78,2213.94 2184.93,2215.37L2207.07,2242.66C2211.5,2248.09 2216.36,2252.37 2221.78,2255.51C2229.64,2259.94 2238.36,2262.23 2248.07,2262.23ZM2168.78,2147.37C2168.78,2122.51 2173.78,2101.51 2183.36,2086.66C2193.21,2071.37 2207.78,2062.8 2226.07,2062.8C2244.21,2062.8 2258.5,2071.23 2268.64,2086.66C2278.21,2101.51 2283.36,2122.51 2283.36,2147.37C2283.36,2189.09 2267.64,2232.23 2226.07,2232.23C2184.64,2232.23 2168.78,2190.23 2168.78,2147.37ZM2190.64,2147.37C2190.64,2176.23 2198.78,2212.66 2226.07,2212.66C2253.78,2212.66 2261.36,2175.37 2261.36,2147.37C2261.36,2119.66 2253.64,2082.09 2226.07,2082.09C2198.78,2082.09 2190.64,2118.94 2190.64,2147.37ZM2217.64,2150.51C2220.64,2132.94 2229.07,2112.23 2248.07,2112.23C2250.07,2112.23 2252.21,2112.51 2254.21,2112.94C2256.93,2122.51 2258.5,2134.37 2258.5,2147.37C2258.5,2173.51 2251.93,2209.8 2226.07,2209.8C2223.93,2209.8 2221.78,2209.66 2219.93,2209.09C2214.78,2191.51 2214.64,2167.51 2217.64,2150.51Z" style="fill:rgb(245,68,51);fill-rule:nonzero;"/>
                        <path d="M2340.21,2205.23L2366.21,2205.23L2366.21,2163.09L2396.21,2163.09L2396.21,2141.09L2377.21,2117.66L2407.78,2117.66L2407.78,2091.51L2384.93,2063.51L2317.36,2063.51L2317.36,2177.09L2340.21,2205.23ZM2317.36,2232.09L2340.21,2260.23L2408.5,2260.23L2408.5,2229.51L2319.93,2229.51L2319.93,2209.51L2408.5,2209.51L2408.5,2207.09L2317.36,2207.09L2317.36,2232.09ZM2319.93,2174.51L2319.93,2066.09L2382.36,2066.09L2382.36,2086.94L2340.93,2086.94L2340.93,2115.37L2370.93,2115.37L2370.93,2132.37L2340.93,2132.37L2340.93,2174.51L2319.93,2174.51Z" style="fill:rgb(245,68,51);fill-rule:nonzero;"/>
                        <path d="M2430.64,2205.23L2456.64,2205.23L2456.64,2163.09L2486.64,2163.09L2486.64,2141.09L2467.64,2117.66L2498.21,2117.66L2498.21,2091.51L2475.36,2063.51L2407.78,2063.51L2407.78,2177.09L2430.64,2205.23ZM2405.36,2260.23L2499.07,2260.23L2499.07,2229.51L2405.36,2229.51L2405.36,2260.23ZM2405.36,2209.51L2499.07,2209.51L2499.07,2207.09L2405.36,2207.09L2405.36,2209.51ZM2410.36,2174.51L2410.36,2066.09L2472.78,2066.09L2472.78,2086.94L2431.36,2086.94L2431.36,2115.37L2461.36,2115.37L2461.36,2132.37L2431.36,2132.37L2431.36,2174.51L2410.36,2174.51Z" style="fill:rgb(245,68,51);fill-rule:nonzero;"/>
                        <path d="M2522.21,2205.23L2548.36,2205.23L2548.36,2091.51L2525.64,2063.37L2499.64,2063.37L2499.64,2177.09L2522.21,2205.23ZM2495.78,2260.23L2552.5,2260.23L2552.5,2229.51L2495.78,2229.51L2495.78,2260.23ZM2495.78,2209.51L2552.5,2209.51L2552.5,2207.09L2495.78,2207.09L2495.78,2209.51ZM2502.21,2174.51L2502.21,2065.94L2523.07,2065.94L2523.07,2174.51L2502.21,2174.51Z" style="fill:rgb(245,68,51);fill-rule:nonzero;"/>
                        <path d="M2614.78,2206.94L2617.64,2206.94C2630.36,2207.09 2645.64,2198.66 2650.93,2187.09L2628.21,2158.94L2610.36,2143.37C2608.21,2147.23 2605.36,2150.8 2601.64,2152.94C2601.36,2138.8 2602.21,2114.66 2617.64,2113.23C2625.07,2112.94 2629.21,2119.8 2633.21,2124.66L2650.93,2109.09L2627.5,2078.94C2621.64,2069.37 2608.5,2061.37 2594.5,2061.37C2585.93,2061.37 2577.21,2064.23 2570.36,2069.94C2557.64,2080.66 2551.64,2100.37 2551.64,2119.8C2551.64,2136.66 2556.21,2153.51 2564.78,2164.23C2577.64,2178.23 2592.64,2206.94 2614.78,2206.94ZM2551.64,2260.23L2650.21,2260.23L2650.21,2229.51L2551.64,2229.51L2551.64,2260.23ZM2551.64,2209.51L2650.21,2209.51L2650.21,2207.09L2551.64,2207.09L2551.64,2209.51ZM2554.21,2119.94C2554.21,2103.51 2558.07,2089.51 2565.36,2079.37C2572.5,2069.23 2582.78,2063.94 2594.93,2063.94C2608.5,2063.94 2620.5,2072.23 2625.07,2080.37L2611.07,2092.8C2606.5,2086.23 2600.78,2082.51 2594.93,2082.51C2588.78,2082.51 2583.64,2086.66 2580.36,2094.37C2577.78,2100.94 2576.21,2110.09 2576.21,2119.94C2576.21,2130.09 2577.78,2138.94 2580.5,2145.66C2583.93,2153.23 2588.78,2157.37 2594.93,2157.37C2600.78,2157.37 2606.5,2153.8 2611.07,2147.23L2625.07,2159.51C2620.5,2167.8 2608.5,2176.09 2594.93,2176.09C2582.64,2176.09 2572.36,2170.8 2565.21,2160.51C2558.07,2150.51 2554.21,2136.51 2554.21,2119.94Z" style="fill:rgb(245,68,51);fill-rule:nonzero;"/>
                        <path d="M2716.36,2063.51L2648.78,2063.51L2648.78,2177.09L2671.64,2205.23L2739.21,2205.23L2739.21,2180.23L2720.93,2157.8L2729.78,2157.8L2729.78,2135.8L2714.21,2116.66L2739.21,2116.66L2739.21,2091.66L2716.36,2063.51ZM2645.78,2260.23L2740.93,2260.23L2740.93,2235.23L2717.78,2207.09L2645.78,2207.09L2645.78,2209.51L2714.93,2209.51L2714.93,2229.51L2645.78,2229.51L2645.78,2260.23ZM2651.36,2174.51L2651.36,2066.09L2713.78,2066.09L2713.78,2086.09L2672.36,2086.09L2672.36,2110.37L2704.36,2110.37L2704.36,2127.23L2672.36,2127.23L2672.36,2154.51L2713.78,2154.51L2713.78,2174.51L2651.36,2174.51Z" style="fill:rgb(245,68,51);fill-rule:nonzero;"/>
                    </g>
                    <g transform="matrix(1,0,0,1,-2087.9,291.778)">
                        <path d="M2310.86,1915.94L2290.28,1890.09L2292.14,1888.51L2312.71,1914.37L2310.86,1915.94ZM2253.14,2032.66L2255,2031.09L2275.57,2056.94L2273.71,2058.51L2253.14,2032.66ZM2253.14,1890.09L2255,1888.51L2275.57,1914.37L2273.71,1915.94L2253.14,1890.09Z" style="fill:rgb(255,235,214);fill-rule:nonzero;"/>
                        <path d="M2365.71,1918.8L2345.14,1892.94L2347,1891.37L2367.57,1917.23L2365.71,1918.8ZM2372.14,1976.09L2374,1974.51L2394.57,2000.37L2392.71,2001.94L2372.14,1976.09Z" style="fill:rgb(255,235,214);fill-rule:nonzero;"/>
                        <path d="M2474.14,1984.23L2453.57,1958.37L2455.43,1956.8L2476,1982.66L2474.14,1984.23ZM2446.43,1977.37L2448.28,1975.8L2468.86,2001.66L2467,2003.23L2446.43,1977.37ZM2517.57,1976.94L2519.43,1975.37L2540,2001.23L2538.14,2002.8L2517.57,1976.94Z" style="fill:rgb(255,235,214);fill-rule:nonzero;"/>
                        <path d="M2582.43,1912.09L2561.86,1886.23L2563.71,1884.66L2584.28,1910.51L2582.43,1912.09ZM2584,1974.37L2585.86,1972.8L2606.43,1998.66L2604.57,2000.23L2584,1974.37ZM2585.71,1895.51L2587.57,1893.94L2608.14,1919.8L2606.28,1921.37L2585.71,1895.51Z" style="fill:rgb(255,235,214);fill-rule:nonzero;"/>
                        <path d="M2708.28,2057.94L2687.71,2032.09L2689.57,2030.51L2710.14,2056.37L2708.28,2057.94ZM2663.28,1977.37L2665.14,1975.8L2685.71,2001.66L2683.86,2003.23L2663.28,1977.37ZM2663.86,1890.8L2665.71,1889.23L2686.28,1915.09L2684.43,1916.66L2663.86,1890.8ZM2687,1888.8L2688.86,1887.23L2709.43,1913.09L2707.57,1914.66L2687,1888.8Z" style="fill:rgb(255,235,214);fill-rule:nonzero;"/>
                        <path d="M2283.64,2245.23L2263.07,2219.37L2264.93,2217.8L2285.5,2243.66L2283.64,2245.23ZM2209.78,2090.94L2211.64,2089.37L2232.21,2115.23L2230.36,2116.8L2209.78,2090.94Z" style="fill:rgb(255,235,214);fill-rule:nonzero;"/>
                        <path d="M2360.93,2112.94L2342.64,2089.8L2344.5,2088.23L2364.07,2112.94L2360.93,2112.94ZM2342.21,2177.37L2344.07,2175.8L2364.64,2201.66L2362.78,2203.23L2342.21,2177.37ZM2342.78,2135.94L2344.64,2134.37L2365.21,2160.23L2363.36,2161.8L2342.78,2135.94ZM2371.78,2134.94L2373.64,2133.37L2394.21,2159.23L2392.36,2160.8L2371.78,2134.94ZM2383.5,2089.66L2385.36,2088.09L2405.93,2113.94L2404.07,2115.51L2383.5,2089.66Z" style="fill:rgb(255,235,214);fill-rule:nonzero;"/>
                        <path d="M2451.36,2112.94L2433.07,2089.8L2434.93,2088.23L2454.5,2112.94L2451.36,2112.94ZM2432.64,2177.37L2434.5,2175.8L2455.07,2201.66L2453.21,2203.23L2432.64,2177.37ZM2433.21,2135.94L2435.07,2134.37L2455.64,2160.23L2453.78,2161.8L2433.21,2135.94ZM2462.21,2134.94L2464.07,2133.37L2484.64,2159.23L2482.78,2160.8L2462.21,2134.94ZM2473.93,2089.66L2475.78,2088.09L2496.36,2113.94L2494.5,2115.51L2473.93,2089.66Z" style="fill:rgb(255,235,214);fill-rule:nonzero;"/>
                        <path d="M2544.5,2203.09L2523.93,2177.23L2525.78,2175.66L2546.36,2201.51L2544.5,2203.09Z" style="fill:rgb(255,235,214);fill-rule:nonzero;"/>
                        <path d="M2633.64,2121.37L2613.07,2095.51L2614.93,2093.94L2635.5,2119.8L2633.64,2121.37ZM2587.36,2088.66L2589.21,2087.09L2609.78,2112.94L2607.93,2114.51L2587.36,2088.66ZM2611.5,2175.8L2613.36,2174.23L2633.93,2200.09L2632.07,2201.66L2611.5,2175.8Z" style="fill:rgb(255,235,214);fill-rule:nonzero;"/>
                        <path d="M2735.5,2203.37L2714.93,2177.51L2716.78,2175.94L2737.36,2201.8L2735.5,2203.37ZM2674.36,2130.66L2676.36,2129.09L2694.5,2152.09L2691.36,2152.09L2674.36,2130.66ZM2674.36,2089.8L2676.36,2088.23L2691.78,2107.94L2688.64,2107.94L2674.36,2089.8ZM2705.21,2129.8L2707.07,2128.23L2727.64,2154.09L2725.78,2155.66L2705.21,2129.8ZM2714.93,2088.8L2716.78,2087.23L2737.36,2113.09L2735.5,2114.66L2714.93,2088.8ZM2715.78,2232.09L2717.64,2230.51L2738.21,2256.37L2736.36,2257.94L2715.78,2232.09Z" style="fill:rgb(255,235,214);fill-rule:nonzero;"/>
                    </g>
                    <g transform="matrix(1,0,0,1,-2087.9,291.778)">
                        <path d="M2194,1887.51L2194,1866.37L2289.28,1866.37L2289.28,1887.51L2252.14,1887.51L2252.14,2030.09L2231,2030.09L2231,1887.51L2194,1887.51Z" style="fill:rgb(255,235,214);fill-rule:nonzero;"/>
                        <path d="M2355.71,1976.09C2327.28,1976.09 2314.57,1947.94 2314.57,1920.09C2314.57,1904.8 2318.43,1889.51 2325.71,1879.37C2333.14,1869.09 2344,1863.94 2356.28,1863.94C2385.71,1863.94 2398.43,1891.94 2398.43,1919.66C2398.43,1935.23 2394.43,1950.51 2387.14,1960.66C2379.57,1970.94 2368.86,1976.09 2355.71,1976.09ZM2321.86,2029.51L2321.86,2009.51L2423.71,2009.51L2423.71,2029.51L2321.86,2029.51ZM2336.28,1919.94C2336.86,1936.23 2339.14,1955.37 2356.43,1956.37C2370,1957.09 2376.71,1938.51 2376.71,1919.94C2376.71,1901.37 2370,1883.51 2356.43,1883.51C2339.43,1883.51 2336.71,1903.66 2336.28,1919.94Z" style="fill:rgb(255,235,214);fill-rule:nonzero;"/>
                        <path d="M2424.28,1974.51L2462.71,1865.94L2478.28,1865.94L2516.71,1974.51L2495.43,1974.51L2489.14,1954.8L2452,1954.8L2445.57,1974.51L2424.28,1974.51ZM2423.57,2029.51L2423.57,2009.51L2540.14,2009.51L2540.14,2029.51L2423.57,2029.51ZM2457.71,1938.23L2483.43,1938.23L2470.43,1898.8L2457.71,1938.23Z" style="fill:rgb(255,235,214);fill-rule:nonzero;"/>
                        <path d="M2565.43,1976.23C2550,1976.23 2536.71,1968.51 2531,1960.51L2544.28,1946.8C2549.28,1952.37 2556.86,1956.23 2564.14,1956.23C2572.28,1956.23 2577.86,1952.23 2577.86,1944.37C2577.86,1936.66 2569.57,1933.09 2556.14,1927.51C2541.28,1922.09 2530.43,1912.94 2530.43,1896.51C2530.43,1887.66 2533.71,1879.23 2540,1873.37C2546.14,1867.23 2554.28,1863.94 2563.28,1863.94C2577.71,1863.94 2590.14,1871.37 2596.43,1879.09L2583.71,1892.66C2579,1886.23 2572.28,1882.94 2564.86,1882.94C2557.57,1882.94 2552.14,1888.23 2552.14,1895.09C2552.14,1902.23 2559.57,1905.37 2569.14,1909.23C2584.86,1914.51 2599.71,1925.8 2599.71,1943.37C2599.71,1962.09 2584.14,1976.23 2565.43,1976.23ZM2526.86,2029.51L2526.86,2009.51L2624,2009.51L2624,2029.51L2526.86,2029.51Z" style="fill:rgb(255,235,214);fill-rule:nonzero;"/>
                        <path d="M2616.28,1887.09L2616.28,1866.09L2686.86,1866.09L2686.86,1887.09L2662,1887.09L2662,1974.51L2641.14,1974.51L2641.14,1887.09L2616.28,1887.09ZM2613.86,2029.51L2613.86,2009.51L2686.86,2009.51L2686.86,2029.51L2613.86,2029.51Z" style="fill:rgb(255,235,214);fill-rule:nonzero;"/>
                        <path d="M2226.07,2232.23C2184.64,2232.23 2168.78,2190.23 2168.78,2147.37C2168.78,2122.51 2173.78,2101.51 2183.36,2086.66C2193.21,2071.37 2207.78,2062.8 2226.07,2062.8C2244.21,2062.8 2258.5,2071.23 2268.64,2086.66C2278.21,2101.51 2283.36,2122.51 2283.36,2147.37C2283.36,2189.09 2267.64,2232.23 2226.07,2232.23ZM2190.64,2147.37C2190.64,2176.23 2198.78,2212.66 2226.07,2212.66C2253.78,2212.66 2261.36,2175.37 2261.36,2147.37C2261.36,2119.66 2253.64,2082.09 2226.07,2082.09C2198.78,2082.09 2190.64,2118.94 2190.64,2147.37Z" style="fill:rgb(255,235,214);fill-rule:nonzero;"/>
                        <path d="M2319.93,2174.51L2319.93,2066.09L2382.36,2066.09L2382.36,2086.94L2340.93,2086.94L2340.93,2115.37L2370.93,2115.37L2370.93,2132.37L2340.93,2132.37L2340.93,2174.51L2319.93,2174.51ZM2319.93,2229.51L2319.93,2209.51L2408.5,2209.51L2408.5,2229.51L2319.93,2229.51Z" style="fill:rgb(255,235,214);fill-rule:nonzero;"/>
                        <path d="M2410.36,2174.51L2410.36,2066.09L2472.78,2066.09L2472.78,2086.94L2431.36,2086.94L2431.36,2115.37L2461.36,2115.37L2461.36,2132.37L2431.36,2132.37L2431.36,2174.51L2410.36,2174.51ZM2405.36,2229.51L2405.36,2209.51L2499.07,2209.51L2499.07,2229.51L2405.36,2229.51Z" style="fill:rgb(255,235,214);fill-rule:nonzero;"/>
                        <path d="M2502.21,2174.51L2502.21,2065.94L2523.07,2065.94L2523.07,2174.51L2502.21,2174.51ZM2495.78,2229.51L2495.78,2209.51L2552.5,2209.51L2552.5,2229.51L2495.78,2229.51Z" style="fill:rgb(255,235,214);fill-rule:nonzero;"/>
                        <path d="M2594.93,2176.09C2582.64,2176.09 2572.36,2170.8 2565.21,2160.51C2558.07,2150.51 2554.21,2136.51 2554.21,2119.94C2554.21,2103.51 2558.07,2089.51 2565.36,2079.37C2572.5,2069.23 2582.78,2063.94 2594.93,2063.94C2608.5,2063.94 2620.5,2072.23 2625.07,2080.37L2611.07,2092.8C2606.5,2086.23 2600.78,2082.51 2594.93,2082.51C2588.78,2082.51 2583.64,2086.66 2580.36,2094.37C2577.78,2100.94 2576.21,2110.09 2576.21,2119.94C2576.21,2130.09 2577.78,2138.94 2580.5,2145.66C2583.93,2153.23 2588.78,2157.37 2594.93,2157.37C2600.78,2157.37 2606.5,2153.8 2611.07,2147.23L2625.07,2159.51C2620.5,2167.8 2608.5,2176.09 2594.93,2176.09ZM2551.64,2229.51L2551.64,2209.51L2650.21,2209.51L2650.21,2229.51L2551.64,2229.51Z" style="fill:rgb(255,235,214);fill-rule:nonzero;"/>
                        <path d="M2651.36,2174.51L2651.36,2066.09L2713.78,2066.09L2713.78,2086.09L2672.36,2086.09L2672.36,2110.37L2704.36,2110.37L2704.36,2127.23L2672.36,2127.23L2672.36,2154.51L2713.78,2154.51L2713.78,2174.51L2651.36,2174.51ZM2645.78,2229.51L2645.78,2209.51L2714.93,2209.51L2714.93,2229.51L2645.78,2229.51Z" style="fill:rgb(255,235,214);fill-rule:nonzero;"/>
                    </g>
                </g>
                <g transform="matrix(1,0,0,1,-814.677,1060.08)">
                    <path d="M1726.29,1054.36L1727.37,1063.03L1736.48,1061.9L1740.47,1094.13L1749.14,1093.05L1745.15,1060.83L1754.27,1059.7L1753.19,1051.03L1726.29,1054.36Z" style="fill:rgb(249,178,32);fill-rule:nonzero;"/>
                    <path d="M1780.04,1090.58L1788.78,1090.56L1788.73,1074.38L1799.75,1074.34L1799.8,1090.53L1808.54,1090.5L1808.42,1049.3L1799.68,1049.32L1799.73,1067.14L1788.71,1067.18L1788.66,1049.35L1779.92,1049.38L1780.04,1090.58Z" style="fill:rgb(249,178,32);fill-rule:nonzero;"/>
                    <path d="M1833.76,1092.06L1857.71,1095L1858.73,1086.72L1843.45,1084.85L1844.57,1075.68L1856.4,1077.13L1857.27,1069.98L1845.45,1068.54L1846.43,1060.5L1861.71,1062.37L1862.72,1054.1L1838.77,1051.16L1833.76,1092.06Z" style="fill:rgb(249,178,32);fill-rule:nonzero;"/>
                </g>
                <g transform="matrix(1,0,0,1,-814.677,1469.82)">
                    <path d="M1704.85,1215.56L1704.25,1218.83L1728.95,1223.39L1730.4,1215.53L1715.36,1212.75C1716.19,1210.18 1721.1,1207.35 1725.08,1204.95C1729.35,1202.31 1733.41,1199.22 1734.47,1193.46C1735.62,1187.21 1731.28,1181.21 1725.08,1180.07C1717.75,1178.71 1712.34,1182.06 1709.81,1188.1L1716.35,1191.53C1717.75,1188.61 1720.22,1186.99 1723,1187.51C1725.39,1187.95 1726.58,1189.99 1726.12,1192.48C1725.52,1195.75 1721.96,1197.77 1717.4,1200.61C1711.12,1204.3 1706.06,1209.02 1704.85,1215.56Z" style="fill:rgb(249,178,32);fill-rule:nonzero;"/>
                    <path d="M1770.44,1228.05C1779.71,1228.54 1786.01,1219.43 1786.64,1207.58C1787.27,1195.68 1782.02,1186 1772.7,1185.51C1763.38,1185.01 1757.13,1194.08 1756.5,1205.98C1755.87,1217.88 1761.07,1227.55 1770.44,1228.05ZM1765.23,1206.44C1765.62,1199 1768.09,1193.67 1772.26,1193.89C1776.32,1194.1 1778.31,1199.63 1777.92,1207.11C1777.52,1214.65 1775.05,1219.89 1770.89,1219.67C1766.77,1219.45 1764.83,1213.98 1765.23,1206.44Z" style="fill:rgb(249,178,32);fill-rule:nonzero;"/>
                    <path d="M1811.47,1224.59L1811.67,1227.91L1836.75,1226.38L1836.26,1218.4L1821,1219.33C1821.18,1216.63 1825.27,1212.7 1828.55,1209.42C1832.06,1205.82 1835.25,1201.85 1834.9,1196C1834.51,1189.66 1828.85,1184.88 1822.55,1185.27C1815.12,1185.72 1810.67,1190.27 1809.67,1196.74L1816.85,1198.5C1817.5,1195.32 1819.5,1193.16 1822.33,1192.99C1824.76,1192.84 1826.4,1194.53 1826.56,1197.06C1826.76,1200.38 1823.8,1203.19 1820.05,1207.05C1814.84,1212.15 1811.07,1217.95 1811.47,1224.59Z" style="fill:rgb(249,178,32);fill-rule:nonzero;"/>
                    <path d="M1862.35,1219.98L1862.96,1223.25L1887.65,1218.64L1886.19,1210.79L1871.16,1213.59C1871.01,1210.89 1874.58,1206.49 1877.43,1202.83C1880.47,1198.82 1883.14,1194.49 1882.07,1188.73C1880.9,1182.48 1874.7,1178.44 1868.5,1179.6C1861.18,1180.96 1857.32,1186.02 1857.13,1192.57L1864.46,1193.43C1864.72,1190.2 1866.44,1187.81 1869.23,1187.29C1871.62,1186.84 1873.46,1188.32 1873.92,1190.8C1874.53,1194.07 1871.94,1197.23 1868.7,1201.53C1864.16,1207.22 1861.13,1213.44 1862.35,1219.98Z" style="fill:rgb(249,178,32);fill-rule:nonzero;"/>
                </g>
                <g transform="matrix(1,0,0,1,-4.54747e-13,11.811)">
                    <path d="M602.71,2281.74C606.175,2270.72 599.433,2258.82 587.562,2255.09C575.478,2251.29 563.66,2254.8 559.862,2266.88C558.33,2271.76 559.62,2277.29 563.285,2281.93L557.191,2279.09L551.195,2298.16C551.195,2298.16 564.375,2296.25 578.7,2299.59C593.104,2303.42 611.802,2315.82 611.802,2315.82L618.265,2295.25C618.265,2295.25 606.029,2294.9 594.115,2292.79C597.671,2291.11 600.778,2287.89 602.71,2281.74ZM586.974,2290.31C580.614,2288.31 578.918,2287.78 575.381,2286.43C569.366,2284.08 566.707,2280.68 568.306,2275.59C569.705,2271.14 575.066,2268.16 583.122,2270.7C590.33,2272.96 595.066,2278.64 593.334,2284.16C592.334,2287.34 590.329,2289.27 586.974,2290.31Z" style="fill:rgb(243,146,70);fill-rule:nonzero;"/>
                    <path d="M637.621,2242.91L647.936,2224.24C647.936,2224.24 636.425,2221.18 624.001,2216.09C630.7,2210.4 642.668,2214.47 650.837,2218.99L662.549,2197.78C654.135,2199.23 645.471,2204.34 635.219,2204.52C640.054,2195.77 636.402,2185.37 625.898,2179.57C615.005,2173.55 601.821,2174.9 596.341,2184.82C593.869,2189.3 594.121,2195.27 596.206,2200.23L591.404,2196.06L581.733,2213.56C581.733,2213.56 595.615,2214.63 608.883,2220.94C622.064,2226.96 637.621,2242.91 637.621,2242.91ZM616.784,2212.62C612.699,2210.36 610.754,2209.28 607.554,2207.26C601.934,2203.65 599.809,2199.68 602.495,2194.82C604.859,2190.54 610.898,2188.8 618.095,2192.78C624.904,2196.54 626.665,2202.08 623.764,2207.33C622.152,2210.25 619.589,2212.13 616.784,2212.62Z" style="fill:rgb(243,146,70);fill-rule:nonzero;"/>
                    <path d="M694.491,2157.65C702.819,2147.82 699.366,2130.92 685.459,2119.14C671.382,2107.22 653.126,2105.74 644.798,2115.58C636.326,2125.59 640.797,2143.35 654.874,2155.27C668.781,2167.04 686.019,2167.66 694.491,2157.65ZM660.893,2142.31C653.092,2135.7 649.636,2126.37 652.939,2122.47C656.098,2118.74 666.041,2120.75 673.673,2127.22C681.983,2134.25 684.93,2143.15 681.771,2146.88C678.468,2150.78 669.204,2149.35 660.893,2142.31Z" style="fill:rgb(243,146,70);fill-rule:nonzero;"/>
                    <path d="M749.062,2104.91C761.209,2095.2 756.836,2083.33 749.201,2073.78C745.453,2069.1 738.303,2060.87 735.874,2057.12C731.154,2049.8 727.336,2040.05 727.336,2040.05L711.372,2052.82C720.534,2058.58 727.198,2064.07 735.874,2075.62C739.726,2080.79 742.815,2087.14 737.957,2091.03C732.924,2095.06 727.233,2090.79 723.207,2085.76C714.183,2074.48 710.296,2066.77 706.34,2056.85L690.375,2069.62C690.375,2069.62 699.191,2075.66 705.16,2081.7C708.284,2084.89 714.739,2093.67 718.487,2098.36C726.678,2108.59 736.916,2114.63 749.062,2104.91Z" style="fill:rgb(243,146,70);fill-rule:nonzero;"/>
                    <path d="M788.25,2075.02L806.559,2065.43C817.978,2059.45 829.783,2042.24 819.681,2022.94C809.58,2003.65 790.476,2002.61 776.302,2010.04L758.977,2019.11C767.422,2024.22 774.638,2032.73 779.689,2042.38C785.049,2052.61 788.646,2064.27 788.25,2075.02ZM789.935,2037.51C784.678,2027.47 780.79,2016.21 780.79,2016.21C788.665,2012.09 798.104,2017.18 804.701,2029.78C811.297,2042.38 808.868,2050.68 800.993,2054.8C800.993,2054.8 796.326,2049.72 789.935,2037.51Z" style="fill:rgb(243,146,70);fill-rule:nonzero;"/>
                    <path d="M861.925,2040.51L894.431,2030.54L889.219,2013.54C885.913,2019.44 880.205,2025.84 876.428,2027.92C872.417,2019.39 870.61,2012.74 868.494,2004.33C864.832,1990.11 865.093,1973.53 865.093,1973.53L842.148,1980.56C842.148,1980.56 851.646,1991.83 856.795,2005.59C862.157,2019.29 861.925,2040.51 861.925,2040.51Z" style="fill:rgb(243,146,70);fill-rule:nonzero;"/>
                    <path d="M930.34,2023.33L952.82,2020.42C949.854,2016.55 946.881,2010.88 946.026,2004.27C943.605,1985.54 955.65,1966.05 960.155,1955.84L937.235,1958.8C937.235,1958.8 939.213,1963.7 940.103,1972.32C940.795,1979.4 937.164,1987.71 937.164,1987.71C937.164,1987.71 931.538,1980.6 930.627,1973.55C929.295,1964.98 929.742,1959.77 929.742,1959.77L906.822,1962.73C913.777,1971.47 930.381,1987.25 932.803,2005.98C933.658,2012.59 932.223,2018.83 930.34,2023.33Z" style="fill:rgb(243,146,70);fill-rule:nonzero;"/>
                    <path d="M1057.46,2024.98C1066.89,2026.57 1076.14,2019.79 1077.66,2010.81C1078.77,2004.24 1077.07,1998.31 1071.53,1989.72C1068.15,1984.41 1063.49,1978.66 1064.15,1974.72C1064.82,1970.78 1067.45,1968.52 1071.62,1969.22C1074.46,1969.7 1075.74,1971.5 1077.05,1973.07L1082.72,1970.19C1081.49,1966.83 1077.95,1962.4 1071.38,1961.29C1059.55,1959.29 1052.15,1965.71 1050.93,1972.94C1049.75,1979.95 1052.18,1984.19 1056.04,1990.71C1060.23,1997.95 1062.85,2002.45 1062.11,2006.83C1061.37,2011.21 1058.04,2013.58 1054.75,2013.02C1050.59,2012.32 1048.91,2008.88 1047.83,2005.99L1042.41,2008.69C1043.02,2015.78 1047.82,2023.35 1057.46,2024.98Z" style="fill:rgb(243,146,70);fill-rule:nonzero;"/>
                    <path d="M1120.3,2041.1C1130.58,2044.68 1138.44,2040.35 1142.38,2034.43L1138.93,2029.47C1137.37,2030.57 1133.49,2032.28 1129.29,2030.82C1123.41,2028.77 1121.44,2023.62 1123.26,2018.37C1125.16,2012.91 1130.17,2011.36 1136.05,2013.41C1137.52,2013.92 1139.74,2015.63 1140.78,2016.7L1144.14,2007.05C1142.24,2007.09 1140.98,2007.36 1138.59,2006.76C1133.62,2005.5 1131.43,2000.98 1133.25,1995.73C1134.93,1990.9 1139.82,1987.66 1144.65,1989.34C1146.96,1990.14 1148.48,1991.85 1149.52,1993.62L1154.89,1991.02C1154.17,1987 1149.66,1982.38 1143.57,1980.26C1132.24,1976.32 1122.69,1981.47 1119.4,1990.91C1117.58,1996.16 1117.66,2000.66 1120.55,2005.19C1114.77,2006.95 1110.42,2011.32 1108.38,2017.19C1104.8,2027.48 1108.96,2037.16 1120.3,2041.1Z" style="fill:rgb(243,146,70);fill-rule:nonzero;"/>
                    <path d="M1163.6,2057.31L1182.12,2067.89C1182.12,2067.89 1185.34,2056.42 1190.6,2044.07C1196.2,2050.85 1191.96,2062.76 1187.34,2070.86L1208.37,2082.87C1207.05,2074.43 1202.05,2065.7 1202.02,2055.45C1210.7,2060.4 1221.15,2056.9 1227.1,2046.48C1233.27,2035.67 1232.1,2022.47 1222.26,2016.85C1217.82,2014.31 1211.84,2014.48 1206.85,2016.5L1211.09,2011.75L1193.72,2001.84C1193.72,2001.84 1192.46,2015.71 1185.96,2028.88C1179.77,2041.98 1163.6,2057.31 1163.6,2057.31ZM1194.18,2036.9C1196.5,2032.85 1197.6,2030.92 1199.66,2027.75C1203.35,2022.18 1207.35,2020.11 1212.17,2022.86C1216.42,2025.29 1218.08,2031.35 1214,2038.49C1210.14,2045.24 1204.58,2046.93 1199.37,2043.95C1196.47,2042.3 1194.62,2039.71 1194.18,2036.9Z" style="fill:rgb(243,146,70);fill-rule:nonzero;"/>
                    <path d="M1241.52,2108.5L1255.26,2120.46C1257.34,2114.02 1269.15,2107.21 1281.84,2099.4C1291.21,2093.71 1303.3,2088.62 1311.62,2085.84L1292.67,2069.35C1291.79,2074.77 1288.43,2078.62 1284.79,2082.81C1282.45,2085.5 1271.23,2096.36 1261.11,2100.21C1263.52,2089.64 1272.73,2077.03 1275.06,2074.35C1278.71,2070.16 1282.07,2066.31 1287.31,2064.68L1268.2,2048.05C1266.42,2056.52 1262.9,2069.37 1258.71,2079.27C1252.89,2093.06 1247.62,2105.55 1241.52,2108.5Z" style="fill:rgb(243,146,70);fill-rule:nonzero;"/>
                    <path d="M1288.3,2154.34L1302.34,2171.56C1302.34,2171.56 1314.25,2153.83 1326.01,2145.39C1337.94,2136.82 1352.1,2132.73 1352.1,2132.73L1336.24,2113.26C1336.24,2113.26 1329.52,2126.48 1318.71,2136.43C1308.08,2146.25 1288.3,2154.34 1288.3,2154.34Z" style="fill:rgb(243,146,70);fill-rule:nonzero;"/>
                    <path d="M1322,2198.34L1332.86,2217.98C1332.86,2217.98 1350.72,2202.52 1362.74,2194.86C1358.57,2214.43 1339.31,2229.65 1339.31,2229.65L1347.48,2244.43C1347.48,2244.43 1355.56,2232.86 1367.77,2225.09C1380.17,2217.22 1402.07,2212.73 1402.07,2212.73L1391.21,2193.09C1391.21,2193.09 1379.14,2206.62 1369.41,2211.99C1367.27,2213.17 1365.22,2214.05 1362.97,2215.04C1367.08,2201.35 1375.83,2189.15 1385.94,2183.56L1376.59,2166.64C1376.59,2166.64 1368.62,2178.41 1356.11,2186.09C1343.89,2193.85 1322,2198.34 1322,2198.34Z" style="fill:rgb(243,146,70);fill-rule:nonzero;"/>
                    <path d="M1363.92,2293.86C1366.22,2301.29 1367.89,2302.16 1370.52,2310.66C1371.05,2312.35 1371.62,2314.97 1371.62,2314.97C1371.62,2314.97 1379.26,2309.58 1386.9,2307.21C1395.82,2304.44 1406.44,2307.2 1406.44,2307.2L1399.6,2285.12C1399.6,2285.12 1393.55,2291.88 1385.54,2295.3C1382.84,2296.37 1380.02,2297.01 1376.5,2296.93C1376.03,2296.15 1375.7,2295.09 1375.24,2293.61C1373.53,2288.09 1380.72,2280.51 1393.66,2276.49C1406.61,2272.48 1416.73,2275.85 1418.71,2282.22C1419.69,2285.41 1419.37,2287.37 1418.56,2289.25L1424.97,2291.91C1428.31,2286.92 1429.44,2280.06 1427.46,2273.69C1422.66,2258.2 1404.79,2255.36 1388.45,2260.43C1371.05,2265.82 1359.05,2278.15 1363.92,2293.86Z" style="fill:rgb(243,146,70);fill-rule:nonzero;"/>
                </g>
                <g id="MASSIVE-MELTS" serif:id="MASSIVE MELTS" transform="matrix(1,0,0,1,-4.54747e-13,11.811)">
                    <path d="M559.916,2567.75L569.453,2589.04C571.427,2584.75 582.142,2576.06 586.807,2573.97C589.849,2572.61 594.317,2572.8 595.498,2575.43C597.496,2579.89 592.656,2583.77 588.6,2585.58L577.445,2590.58L580.533,2597.47C584.883,2595.77 588.037,2594.11 591.688,2592.48C595.744,2590.66 601.947,2589.83 603.854,2594.09C605.035,2596.73 602.202,2600.19 599.159,2601.55C594.495,2603.64 580.873,2605.84 576.356,2604.46L585.893,2625.75C592.231,2617.07 602.002,2609.53 612.549,2604.81C622.486,2600.36 633.423,2598.14 643.219,2599.35L634.772,2580.49C634.772,2580.49 613.226,2588.92 602.921,2583.31C605.596,2571.88 626.235,2561.42 626.235,2561.42L617.788,2542.56C612.17,2550.68 603.231,2557.36 593.293,2561.81C582.747,2566.53 570.614,2568.8 559.916,2567.75Z" style="fill:rgb(243,146,70);fill-rule:nonzero;"/>
                    <path d="M612.291,2668.57L626.931,2687.59C628.731,2682.28 632.55,2678.5 636.167,2676.27C639.432,2674.32 643.117,2674.01 644.879,2676.3C646.506,2678.41 645.843,2682.28 642.809,2684.9C639.599,2687.65 634.967,2690.38 629.371,2690.76L644.011,2709.78C652.174,2690.87 668.981,2670.08 687.242,2662.47L669.077,2638.88C657.187,2654.76 632.654,2665.52 612.291,2668.57ZM647.694,2666.84L668.651,2658L654.743,2675.99C653.496,2675.83 650.989,2674.4 649.633,2672.64C648.278,2670.88 647.532,2668.09 647.694,2666.84Z" style="fill:rgb(243,146,70);fill-rule:nonzero;"/>
                    <path d="M688.806,2755.17C695.986,2761.47 707.423,2760.57 713.434,2753.73C717.833,2748.72 719.495,2742.78 719.305,2732.56C719.211,2726.27 718.263,2718.93 720.902,2715.92C723.542,2712.92 726.971,2712.38 730.144,2715.16C732.314,2717.07 732.457,2719.27 732.746,2721.3L739.079,2721.83C739.796,2718.32 739.116,2712.69 734.107,2708.3C725.09,2700.38 715.429,2701.95 710.59,2707.46C705.898,2712.8 705.743,2717.69 705.604,2725.26C705.359,2733.62 705.224,2738.83 702.292,2742.17C699.359,2745.51 695.282,2745.77 692.778,2743.57C689.605,2740.78 689.988,2736.98 690.579,2733.95L684.559,2733.4C681.349,2739.75 681.459,2748.72 688.806,2755.17Z" style="fill:rgb(243,146,70);fill-rule:nonzero;"/>
                    <path d="M754.679,2803.41C762.857,2808.36 773.957,2805.46 778.669,2797.66C782.117,2791.95 782.708,2785.82 780.719,2775.79C779.519,2769.61 777.293,2762.55 779.362,2759.13C781.43,2755.71 784.711,2754.58 788.325,2756.76C790.798,2758.25 791.324,2760.39 791.966,2762.33L798.294,2761.74C798.382,2758.16 796.722,2752.74 791.016,2749.3C780.746,2743.09 771.513,2746.34 767.72,2752.62C764.042,2758.7 764.751,2763.55 765.947,2771.02C767.179,2779.29 767.963,2784.44 765.665,2788.24C763.366,2792.05 759.399,2793.03 756.546,2791.3C752.933,2789.12 752.64,2785.31 752.688,2782.22L746.664,2782.73C744.623,2789.55 746.311,2798.36 754.679,2803.41Z" style="fill:rgb(243,146,70);fill-rule:nonzero;"/>
                    <path d="M816.999,2834.06L837.735,2842.05C837.735,2842.05 839.28,2820.73 845.303,2807.57C851.406,2794.21 861.672,2783.64 861.672,2783.64L838.24,2774.61C838.24,2774.61 838.965,2789.41 834.52,2803.42C830.156,2817.22 816.999,2834.06 816.999,2834.06Z" style="fill:rgb(243,146,70);fill-rule:nonzero;"/>
                    <path d="M904.672,2860.31L922.629,2863.4C921.058,2856.82 927.627,2844.87 934.423,2831.61C939.481,2821.89 947.176,2811.26 952.839,2804.57L928.093,2800.3C930.147,2805.39 929.279,2810.43 928.335,2815.91C927.731,2819.41 923.775,2834.51 917.115,2843.06C913.702,2832.78 915.03,2817.22 915.634,2813.72C916.577,2808.24 917.445,2803.2 921.085,2799.1L896.12,2794.79C898.997,2802.96 902.653,2815.76 904.201,2826.4C906.385,2841.21 908.356,2854.63 904.672,2860.31Z" style="fill:rgb(243,146,70);fill-rule:nonzero;"/>
                    <path d="M1007.24,2869.2C1018.12,2868.85 1023.91,2862 1025.47,2855.05L1020.47,2851.66C1019.41,2853.25 1016.39,2856.23 1011.95,2856.38C1005.73,2856.57 1002.04,2852.47 1001.86,2846.91C1001.68,2841.14 1005.8,2837.89 1012.02,2837.7C1013.57,2837.65 1016.27,2838.45 1017.62,2839.07L1017.29,2828.86C1015.54,2829.58 1014.45,2830.28 1012.01,2830.58C1006.92,2831.19 1003.25,2827.75 1003.07,2822.2C1002.91,2817.09 1006.32,2812.31 1011.42,2812.15C1013.87,2812.07 1015.9,2813.12 1017.5,2814.4L1021.59,2810.04C1019.47,2806.55 1013.61,2803.85 1007.16,2804.06C995.17,2804.44 988.096,2812.67 988.415,2822.66C988.592,2828.22 990.281,2832.39 994.608,2835.58C989.835,2839.29 987.347,2844.93 987.545,2851.15C987.893,2862.03 995.248,2869.58 1007.24,2869.2Z" style="fill:rgb(243,146,70);fill-rule:nonzero;"/>
                    <path d="M1140.19,2845.28L1161.71,2836.25C1157.46,2834.17 1149.02,2823.25 1147.05,2818.54C1145.76,2815.47 1146.05,2811 1148.72,2809.89C1153.23,2807.99 1156.98,2812.93 1158.7,2817.02L1163.43,2828.29L1170.4,2825.37C1168.8,2820.98 1167.22,2817.79 1165.67,2814.1C1163.95,2810 1163.27,2803.78 1167.57,2801.97C1170.23,2800.86 1173.62,2803.77 1174.91,2806.85C1176.89,2811.56 1178.77,2825.23 1177.28,2829.71L1198.8,2820.68C1190.27,2814.14 1182.96,2804.19 1178.49,2793.54C1174.27,2783.5 1172.31,2772.51 1173.76,2762.74L1154.7,2770.74C1154.7,2770.74 1162.62,2792.48 1156.77,2802.65C1145.41,2799.71 1135.44,2778.83 1135.44,2778.83L1116.38,2786.82C1124.37,2792.63 1130.83,2801.73 1135.05,2811.77C1139.52,2822.42 1141.5,2834.61 1140.19,2845.28Z" style="fill:rgb(243,146,70);fill-rule:nonzero;"/>
                    <path d="M1257.56,2785.08C1266.45,2778.79 1267.5,2769.89 1264.97,2763.24L1258.93,2763.16C1258.92,2765.07 1258.05,2769.22 1254.42,2771.79C1249.34,2775.38 1244,2773.99 1240.79,2769.45C1237.45,2764.74 1239.11,2759.76 1244.18,2756.16C1245.45,2755.27 1248.14,2754.45 1249.62,2754.23L1243.71,2745.88C1242.65,2747.45 1242.13,2748.64 1240.26,2750.23C1236.34,2753.55 1231.39,2752.7 1228.18,2748.16C1225.23,2743.99 1225.43,2738.13 1229.61,2735.17C1231.6,2733.76 1233.88,2733.51 1235.92,2733.7L1236.93,2727.82C1233.24,2726.07 1226.85,2727.05 1221.59,2730.77C1211.8,2737.7 1210.43,2748.47 1216.2,2756.63C1219.41,2761.17 1223.12,2763.72 1228.49,2764C1226.56,2769.72 1227.59,2775.8 1231.18,2780.88C1237.47,2789.77 1247.77,2792.01 1257.56,2785.08Z" style="fill:rgb(243,146,70);fill-rule:nonzero;"/>
                    <path d="M1310.16,2740.84L1333.84,2716.45L1321.08,2704.06C1321.03,2710.82 1319.11,2719.18 1316.8,2722.83C1309.18,2717.28 1304.39,2712.33 1298.48,2705.97C1288.42,2695.28 1280.66,2680.62 1280.66,2680.62L1263.94,2697.84C1263.94,2697.84 1277.69,2703.14 1288.84,2712.72C1300.13,2722.13 1310.16,2740.84 1310.16,2740.84Z" style="fill:rgb(243,146,70);fill-rule:nonzero;"/>
                    <path d="M1370.34,2669.88L1382.03,2652.03C1382.03,2652.03 1365.4,2646.19 1353.69,2638.52C1349.04,2635.48 1340.17,2629.14 1335.76,2624.93C1339.18,2621.32 1344.57,2617.15 1351.77,2615.48L1336.9,2605.75L1310.48,2646.09L1325.36,2655.83C1323.88,2648.75 1325.67,2641.96 1327.61,2637.38C1332.55,2639.56 1342.22,2645.09 1346.49,2647.89C1358.39,2655.68 1370.34,2669.88 1370.34,2669.88Z" style="fill:rgb(243,146,70);fill-rule:nonzero;"/>
                    <path d="M1419.14,2580.67C1422.7,2571.81 1418.05,2561.32 1409.6,2557.92C1403.41,2555.44 1397.26,2555.84 1387.68,2559.42C1381.78,2561.6 1375.17,2564.93 1371.46,2563.44C1367.75,2561.95 1366.1,2558.89 1367.68,2554.97C1368.76,2552.29 1370.78,2551.43 1372.6,2550.48L1371,2544.33C1367.45,2544.82 1362.37,2547.33 1359.88,2553.51C1355.41,2564.65 1360.1,2573.24 1366.9,2575.97C1373.5,2578.62 1378.17,2577.15 1385.35,2574.76C1393.32,2572.22 1398.27,2570.62 1402.4,2572.27C1406.52,2573.93 1408.13,2577.69 1406.88,2580.78C1405.31,2584.7 1401.59,2585.6 1398.54,2586.05L1400.02,2591.91C1407.07,2592.83 1415.49,2589.75 1419.14,2580.67Z" style="fill:rgb(243,146,70);fill-rule:nonzero;"/>
                </g>
                <g transform="matrix(1,0,0,1,36.3197,1444.32)">
                    <circle cx="956.693" cy="980.315" r="507.874" style="fill:none;stroke:rgb(245,68,51);stroke-width:8.33px;"/>
                </g>
                <g transform="matrix(1,0,0,1,48.291,1479.91)">
                    <path d="M520.836,987.305C520.073,977.185 519.685,966.983 519.685,956.693C519.685,938.395 520.91,920.373 523.285,902.707" style="fill:none;stroke:rgb(245,68,51);stroke-width:8.33px;"/>
                </g>
                <g transform="matrix(1,0,0,1,48.291,1479.91)">
                    <path d="M1366.48,902.703C1368.85,920.373 1370.08,938.395 1370.08,956.693C1370.08,966.983 1369.69,977.185 1368.93,987.301" style="fill:none;stroke:rgb(245,68,51);stroke-width:8.33px;"/>
                </g>
            </g>
        </g>
    </g>
</svg>
